<?xml version="1.0" standalone="no"?>
<!DOCTYPE svg PUBLIC "-//W3C//DTD SVG 20010904//EN"
 "http://www.w3.org/TR/2001/REC-SVG-20010904/DTD/svg10.dtd">
<svg version="1.0" xmlns="http://www.w3.org/2000/svg"
 width="1224.000000pt" height="1224.000000pt" viewBox="0 0 1224.000000 1224.000000"
 preserveAspectRatio="xMidYMid meet">
<metadata>
Created by potrace 1.14, written by Peter Selinger 2001-2017
</metadata>
<g transform="translate(0.000000,1224.000000) scale(0.100000,-0.100000)"
fill="#000000" stroke="none">
<path d="M1224 10400 l1 -610 -25 -1 c-14 0 -289 -1 -612 -1 l-588 -1 0 -3003
0 -3003 606 0 c333 0 609 -2 612 -5 3 -4 6 -579 6 -1279 l1 -1272 4283 -3
4282 -2 0 304 0 305 -47 3 -48 3 0 2735 c-1 1504 1 2742 3 2751 3 15 116 16
1270 16 l1267 0 0 614 0 614 -1223 0 -1222 0 0 1222 0 1223 -4283 0 -4284 0 1
-610z"/>
</g>
</svg>
