<?xml version="1.0" encoding="utf-8"?>
<!-- Generator: Adobe Illustrator 26.0.1, SVG Export Plug-In . SVG Version: 6.00 Build 0)  -->
<svg version="1.1" id="Layer_1" xmlns="http://www.w3.org/2000/svg" xmlns:xlink="http://www.w3.org/1999/xlink" x="0px" y="0px"
	 viewBox="0 0 306.3 245" style="enable-background:new 0 0 306.3 245;" xml:space="preserve">
<style type="text/css">
	.st0{fill:#FFFFFF;}
	.st1{fill:#191E2D;}
</style>
<g>
	<g>
		<polygon class="st0" points="0,79.2 0,82.8 0,180.9 30.6,180.9 30.6,245 61.2,245 91.9,245 122.5,245 153.1,245 177,245 
			183.7,245 214.3,245 242.6,245 242.6,205.4 242.6,180.9 242.6,169.5 242.6,133.6 242.6,85.8 242.6,83.2 242.6,79.2 		"/>
		<g>
			<g>
				<rect x="107.2" y="122.5" class="st1" width="30.6" height="30.6"/>
				<rect x="183.7" y="122.5" class="st1" width="30.6" height="30.6"/>
				<path class="st1" d="M306.2,61.2H245V0H30.6v30.6H0v30.6v30.6l0,0v30.6V153h30.6h15.3v76.5V245l0,0h15.3l0,0H245v-15.3h-53.9
					v-15.3V199v-15.3h-61.2V199v15.3v15.3H61.2v-76.5v-30.6V91.9H245l0,0h61.3L306.2,61.2L306.2,61.2z M145.1,214.3V199h30.6v15.3
					v15.3h-30.6V214.3z"/>
			</g>
		</g>
	</g>
</g>
</svg>
